<?xml version="1.0" encoding="utf-8" standalone="no"?>
<!DOCTYPE svg PUBLIC "-//W3C//DTD SVG 1.1//EN"
  "http://www.w3.org/Graphics/SVG/1.1/DTD/svg11.dtd">
<svg xmlns:xlink="http://www.w3.org/1999/xlink" width="720pt" height="432pt" viewBox="0 0 720 432" xmlns="http://www.w3.org/2000/svg" version="1.1">
 <metadata>
  <rdf:RDF xmlns:dc="http://purl.org/dc/elements/1.1/" xmlns:cc="http://creativecommons.org/ns#" xmlns:rdf="http://www.w3.org/1999/02/22-rdf-syntax-ns#">
   <cc:Work>
    <dc:type rdf:resource="http://purl.org/dc/dcmitype/StillImage"/>
    <dc:date>2025-10-24T16:37:13.440950</dc:date>
    <dc:format>image/svg+xml</dc:format>
    <dc:creator>
     <cc:Agent>
      <dc:title>Matplotlib v3.8.0, https://matplotlib.org/</dc:title>
     </cc:Agent>
    </dc:creator>
   </cc:Work>
  </rdf:RDF>
 </metadata>
 <defs>
  <style type="text/css">*{stroke-linejoin: round; stroke-linecap: butt}</style>
 </defs>
 <g id="figure_1">
  <g id="patch_1">
   <path d="M 0 432 
L 720 432 
L 720 0 
L 0 0 
z
" style="fill: #ffffff"/>
  </g>
  <g id="axes_1">
   <g id="patch_2">
    <path d="M 71.975 388.24 
L 709.2 388.24 
L 709.2 27.6 
L 71.975 27.6 
z
" style="fill: #ffffff"/>
   </g>
   <g id="PolyCollection_1">
    <defs>
     <path id="m360f5237a7" d="M 100.939773 -62.313654 
L 100.939773 -62.299178 
L 119.626723 -71.659555 
L 138.313673 -82.923936 
L 157.000623 -92.989091 
L 175.687573 -101.841475 
L 194.374523 -111.953407 
L 213.061474 -122.279248 
L 231.748424 -132.987515 
L 250.435374 -142.979961 
L 269.122324 -151.77101 
L 287.809274 -162.086614 
L 306.496224 -173.131089 
L 325.183174 -183.583406 
L 343.870125 -192.843321 
L 362.557075 -201.825759 
L 381.244025 -215.345138 
L 399.930975 -225.169045 
L 418.617925 -236.910523 
L 437.304875 -244.636329 
L 455.991826 -255.204451 
L 474.678776 -266.566088 
L 493.365726 -276.812891 
L 512.052676 -289.569713 
L 530.739626 -300.974942 
L 549.426576 -311.538411 
L 568.113526 -322.101736 
L 586.800477 -333.251842 
L 605.487427 -343.460078 
L 624.174377 -352.004462 
L 642.861327 -362.195183 
L 661.548277 -373.282961 
L 680.235227 -387.001628 
L 680.235227 -388.007273 
L 680.235227 -388.007273 
L 661.548277 -373.955128 
L 642.861327 -363.152231 
L 624.174377 -352.952245 
L 605.487427 -343.595281 
L 586.800477 -334.573842 
L 568.113526 -322.871883 
L 549.426576 -312.338295 
L 530.739626 -301.205022 
L 512.052676 -290.268639 
L 493.365726 -277.21792 
L 474.678776 -267.082 
L 455.991826 -258.229947 
L 437.304875 -245.489855 
L 418.617925 -236.983522 
L 399.930975 -225.413395 
L 381.244025 -215.502343 
L 362.557075 -201.916542 
L 343.870125 -193.027907 
L 325.183174 -183.670839 
L 306.496224 -173.215875 
L 287.809274 -162.258792 
L 269.122324 -151.952741 
L 250.435374 -143.104121 
L 231.748424 -133.061713 
L 213.061474 -122.430167 
L 194.374523 -112.031865 
L 175.687573 -101.958604 
L 157.000623 -93.063537 
L 138.313673 -82.990069 
L 119.626723 -71.714769 
L 100.939773 -62.313654 
z
" style="stroke: #1f77b4; stroke-opacity: 0.2"/>
    </defs>
    <g clip-path="url(#p21eeba16a5)">
     <use xlink:href="#m360f5237a7" x="0" y="432" style="fill: #1f77b4; fill-opacity: 0.2; stroke: #1f77b4; stroke-opacity: 0.2"/>
    </g>
   </g>
   <g id="PolyCollection_2">
    <defs>
     <path id="md3eb1bf110" d="M 100.939773 -62.477291 
L 100.939773 -62.456529 
L 119.626723 -69.460143 
L 138.313673 -75.776205 
L 157.000623 -80.249268 
L 175.687573 -83.673237 
L 194.374523 -89.016411 
L 213.061474 -88.659048 
L 231.748424 -92.841563 
L 250.435374 -92.837117 
L 269.122324 -93.15676 
L 287.809274 -97.435952 
L 306.496224 -102.577045 
L 325.183174 -101.1855 
L 343.870125 -101.279592 
L 362.557075 -101.13773 
L 381.244025 -104.584344 
L 399.930975 -105.194245 
L 418.617925 -105.208927 
L 437.304875 -105.558887 
L 455.991826 -105.175633 
L 474.678776 -105.94305 
L 493.365726 -109.498728 
L 512.052676 -109.157515 
L 530.739626 -114.233634 
L 549.426576 -113.91246 
L 568.113526 -113.430689 
L 586.800477 -113.687426 
L 605.487427 -114.060463 
L 624.174377 -114.143119 
L 642.861327 -114.561921 
L 661.548277 -114.275282 
L 680.235227 -116.910163 
L 680.235227 -116.999829 
L 680.235227 -116.999829 
L 661.548277 -114.438568 
L 642.861327 -114.768923 
L 624.174377 -114.212934 
L 605.487427 -114.143967 
L 586.800477 -113.755503 
L 568.113526 -113.540953 
L 549.426576 -114.282251 
L 530.739626 -114.616867 
L 512.052676 -109.452778 
L 493.365726 -109.676944 
L 474.678776 -106.014932 
L 455.991826 -105.542736 
L 437.304875 -105.976696 
L 418.617925 -105.396201 
L 399.930975 -105.240484 
L 381.244025 -104.631286 
L 362.557075 -101.215278 
L 343.870125 -101.325666 
L 325.183174 -101.2695 
L 306.496224 -102.655751 
L 287.809274 -97.493813 
L 269.122324 -93.335845 
L 250.435374 -93.061779 
L 231.748424 -92.9218 
L 213.061474 -88.807941 
L 194.374523 -89.197357 
L 175.687573 -83.793427 
L 157.000623 -80.336618 
L 138.313673 -75.827077 
L 119.626723 -69.518253 
L 100.939773 -62.477291 
z
" style="stroke: #ff7f0e; stroke-opacity: 0.2"/>
    </defs>
    <g clip-path="url(#p21eeba16a5)">
     <use xlink:href="#md3eb1bf110" x="0" y="432" style="fill: #ff7f0e; fill-opacity: 0.2; stroke: #ff7f0e; stroke-opacity: 0.2"/>
    </g>
   </g>
   <g id="PolyCollection_3">
    <defs>
     <path id="m0c5ac09c26" d="M 100.939773 -60.177584 
L 100.939773 -60.152727 
L 119.626723 -65.752823 
L 138.313673 -71.411256 
L 157.000623 -71.276177 
L 175.687573 -77.626112 
L 194.374523 -77.708624 
L 213.061474 -77.702627 
L 231.748424 -77.399878 
L 250.435374 -82.262419 
L 269.122324 -82.784225 
L 287.809274 -82.704815 
L 306.496224 -82.568662 
L 325.183174 -82.882204 
L 343.870125 -82.262046 
L 362.557075 -82.645031 
L 381.244025 -82.193122 
L 399.930975 -87.777811 
L 418.617925 -88.604992 
L 437.304875 -89.583236 
L 455.991826 -88.242997 
L 474.678776 -89.454817 
L 493.365726 -89.675818 
L 512.052676 -89.699641 
L 530.739626 -90.398588 
L 549.426576 -90.665457 
L 568.113526 -89.854035 
L 586.800477 -90.101651 
L 605.487427 -90.25925 
L 624.174377 -89.940206 
L 642.861327 -90.196074 
L 661.548277 -90.39468 
L 680.235227 -90.197914 
L 680.235227 -90.316367 
L 680.235227 -90.316367 
L 661.548277 -90.531992 
L 642.861327 -90.290207 
L 624.174377 -90.086452 
L 605.487427 -90.412774 
L 586.800477 -90.193592 
L 568.113526 -90.000321 
L 549.426576 -90.81832 
L 530.739626 -90.518116 
L 512.052676 -89.778637 
L 493.365726 -89.809946 
L 474.678776 -89.667898 
L 455.991826 -88.38217 
L 437.304875 -89.656276 
L 418.617925 -88.757276 
L 399.930975 -87.952139 
L 381.244025 -82.250197 
L 362.557075 -82.783542 
L 343.870125 -82.341166 
L 325.183174 -82.992509 
L 306.496224 -82.698405 
L 287.809274 -82.952432 
L 269.122324 -82.859953 
L 250.435374 -82.310809 
L 231.748424 -77.475896 
L 213.061474 -77.754243 
L 194.374523 -77.789977 
L 175.687573 -77.763507 
L 157.000623 -71.399717 
L 138.313673 -71.502949 
L 119.626723 -65.792569 
L 100.939773 -60.177584 
z
" style="stroke: #2ca02c; stroke-opacity: 0.2"/>
    </defs>
    <g clip-path="url(#p21eeba16a5)">
     <use xlink:href="#m0c5ac09c26" x="0" y="432" style="fill: #2ca02c; fill-opacity: 0.2; stroke: #2ca02c; stroke-opacity: 0.2"/>
    </g>
   </g>
   <g id="matplotlib.axis_1">
    <g id="xtick_1">
     <g id="line2d_1">
      <path d="M 82.252823 388.24 
L 82.252823 27.6 
" clip-path="url(#p21eeba16a5)" style="fill: none; stroke: #b0b0b0; stroke-opacity: 0.3; stroke-width: 0.8; stroke-linecap: square"/>
     </g>
     <g id="line2d_2">
      <defs>
       <path id="m81c19b17fd" d="M 0 0 
L 0 3.5 
" style="stroke: #000000; stroke-width: 0.8"/>
      </defs>
      <g>
       <use xlink:href="#m81c19b17fd" x="82.252823" y="388.24" style="stroke: #000000; stroke-width: 0.8"/>
      </g>
     </g>
     <g id="text_1">
      <!-- 0 -->
      <g transform="translate(79.071573 402.838437) scale(0.1 -0.1)">
       <defs>
        <path id="DejaVuSans-30" d="M 2034 4250 
Q 1547 4250 1301 3770 
Q 1056 3291 1056 2328 
Q 1056 1369 1301 889 
Q 1547 409 2034 409 
Q 2525 409 2770 889 
Q 3016 1369 3016 2328 
Q 3016 3291 2770 3770 
Q 2525 4250 2034 4250 
z
M 2034 4750 
Q 2819 4750 3233 4129 
Q 3647 3509 3647 2328 
Q 3647 1150 3233 529 
Q 2819 -91 2034 -91 
Q 1250 -91 836 529 
Q 422 1150 422 2328 
Q 422 3509 836 4129 
Q 1250 4750 2034 4750 
z
" transform="scale(0.015625)"/>
       </defs>
       <use xlink:href="#DejaVuSans-30"/>
      </g>
     </g>
    </g>
    <g id="xtick_2">
     <g id="line2d_3">
      <path d="M 175.687573 388.24 
L 175.687573 27.6 
" clip-path="url(#p21eeba16a5)" style="fill: none; stroke: #b0b0b0; stroke-opacity: 0.3; stroke-width: 0.8; stroke-linecap: square"/>
     </g>
     <g id="line2d_4">
      <g>
       <use xlink:href="#m81c19b17fd" x="175.687573" y="388.24" style="stroke: #000000; stroke-width: 0.8"/>
      </g>
     </g>
     <g id="text_2">
      <!-- 10 -->
      <g transform="translate(169.325073 402.838437) scale(0.1 -0.1)">
       <defs>
        <path id="DejaVuSans-31" d="M 794 531 
L 1825 531 
L 1825 4091 
L 703 3866 
L 703 4441 
L 1819 4666 
L 2450 4666 
L 2450 531 
L 3481 531 
L 3481 0 
L 794 0 
L 794 531 
z
" transform="scale(0.015625)"/>
       </defs>
       <use xlink:href="#DejaVuSans-31"/>
       <use xlink:href="#DejaVuSans-30" x="63.623047"/>
      </g>
     </g>
    </g>
    <g id="xtick_3">
     <g id="line2d_5">
      <path d="M 269.122324 388.24 
L 269.122324 27.6 
" clip-path="url(#p21eeba16a5)" style="fill: none; stroke: #b0b0b0; stroke-opacity: 0.3; stroke-width: 0.8; stroke-linecap: square"/>
     </g>
     <g id="line2d_6">
      <g>
       <use xlink:href="#m81c19b17fd" x="269.122324" y="388.24" style="stroke: #000000; stroke-width: 0.8"/>
      </g>
     </g>
     <g id="text_3">
      <!-- 20 -->
      <g transform="translate(262.759824 402.838437) scale(0.1 -0.1)">
       <defs>
        <path id="DejaVuSans-32" d="M 1228 531 
L 3431 531 
L 3431 0 
L 469 0 
L 469 531 
Q 828 903 1448 1529 
Q 2069 2156 2228 2338 
Q 2531 2678 2651 2914 
Q 2772 3150 2772 3378 
Q 2772 3750 2511 3984 
Q 2250 4219 1831 4219 
Q 1534 4219 1204 4116 
Q 875 4013 500 3803 
L 500 4441 
Q 881 4594 1212 4672 
Q 1544 4750 1819 4750 
Q 2544 4750 2975 4387 
Q 3406 4025 3406 3419 
Q 3406 3131 3298 2873 
Q 3191 2616 2906 2266 
Q 2828 2175 2409 1742 
Q 1991 1309 1228 531 
z
" transform="scale(0.015625)"/>
       </defs>
       <use xlink:href="#DejaVuSans-32"/>
       <use xlink:href="#DejaVuSans-30" x="63.623047"/>
      </g>
     </g>
    </g>
    <g id="xtick_4">
     <g id="line2d_7">
      <path d="M 362.557075 388.24 
L 362.557075 27.6 
" clip-path="url(#p21eeba16a5)" style="fill: none; stroke: #b0b0b0; stroke-opacity: 0.3; stroke-width: 0.8; stroke-linecap: square"/>
     </g>
     <g id="line2d_8">
      <g>
       <use xlink:href="#m81c19b17fd" x="362.557075" y="388.24" style="stroke: #000000; stroke-width: 0.8"/>
      </g>
     </g>
     <g id="text_4">
      <!-- 30 -->
      <g transform="translate(356.194575 402.838437) scale(0.1 -0.1)">
       <defs>
        <path id="DejaVuSans-33" d="M 2597 2516 
Q 3050 2419 3304 2112 
Q 3559 1806 3559 1356 
Q 3559 666 3084 287 
Q 2609 -91 1734 -91 
Q 1441 -91 1130 -33 
Q 819 25 488 141 
L 488 750 
Q 750 597 1062 519 
Q 1375 441 1716 441 
Q 2309 441 2620 675 
Q 2931 909 2931 1356 
Q 2931 1769 2642 2001 
Q 2353 2234 1838 2234 
L 1294 2234 
L 1294 2753 
L 1863 2753 
Q 2328 2753 2575 2939 
Q 2822 3125 2822 3475 
Q 2822 3834 2567 4026 
Q 2313 4219 1838 4219 
Q 1578 4219 1281 4162 
Q 984 4106 628 3988 
L 628 4550 
Q 988 4650 1302 4700 
Q 1616 4750 1894 4750 
Q 2613 4750 3031 4423 
Q 3450 4097 3450 3541 
Q 3450 3153 3228 2886 
Q 3006 2619 2597 2516 
z
" transform="scale(0.015625)"/>
       </defs>
       <use xlink:href="#DejaVuSans-33"/>
       <use xlink:href="#DejaVuSans-30" x="63.623047"/>
      </g>
     </g>
    </g>
    <g id="xtick_5">
     <g id="line2d_9">
      <path d="M 455.991826 388.24 
L 455.991826 27.6 
" clip-path="url(#p21eeba16a5)" style="fill: none; stroke: #b0b0b0; stroke-opacity: 0.3; stroke-width: 0.8; stroke-linecap: square"/>
     </g>
     <g id="line2d_10">
      <g>
       <use xlink:href="#m81c19b17fd" x="455.991826" y="388.24" style="stroke: #000000; stroke-width: 0.8"/>
      </g>
     </g>
     <g id="text_5">
      <!-- 40 -->
      <g transform="translate(449.629326 402.838437) scale(0.1 -0.1)">
       <defs>
        <path id="DejaVuSans-34" d="M 2419 4116 
L 825 1625 
L 2419 1625 
L 2419 4116 
z
M 2253 4666 
L 3047 4666 
L 3047 1625 
L 3713 1625 
L 3713 1100 
L 3047 1100 
L 3047 0 
L 2419 0 
L 2419 1100 
L 313 1100 
L 313 1709 
L 2253 4666 
z
" transform="scale(0.015625)"/>
       </defs>
       <use xlink:href="#DejaVuSans-34"/>
       <use xlink:href="#DejaVuSans-30" x="63.623047"/>
      </g>
     </g>
    </g>
    <g id="xtick_6">
     <g id="line2d_11">
      <path d="M 549.426576 388.24 
L 549.426576 27.6 
" clip-path="url(#p21eeba16a5)" style="fill: none; stroke: #b0b0b0; stroke-opacity: 0.3; stroke-width: 0.8; stroke-linecap: square"/>
     </g>
     <g id="line2d_12">
      <g>
       <use xlink:href="#m81c19b17fd" x="549.426576" y="388.24" style="stroke: #000000; stroke-width: 0.8"/>
      </g>
     </g>
     <g id="text_6">
      <!-- 50 -->
      <g transform="translate(543.064076 402.838437) scale(0.1 -0.1)">
       <defs>
        <path id="DejaVuSans-35" d="M 691 4666 
L 3169 4666 
L 3169 4134 
L 1269 4134 
L 1269 2991 
Q 1406 3038 1543 3061 
Q 1681 3084 1819 3084 
Q 2600 3084 3056 2656 
Q 3513 2228 3513 1497 
Q 3513 744 3044 326 
Q 2575 -91 1722 -91 
Q 1428 -91 1123 -41 
Q 819 9 494 109 
L 494 744 
Q 775 591 1075 516 
Q 1375 441 1709 441 
Q 2250 441 2565 725 
Q 2881 1009 2881 1497 
Q 2881 1984 2565 2268 
Q 2250 2553 1709 2553 
Q 1456 2553 1204 2497 
Q 953 2441 691 2322 
L 691 4666 
z
" transform="scale(0.015625)"/>
       </defs>
       <use xlink:href="#DejaVuSans-35"/>
       <use xlink:href="#DejaVuSans-30" x="63.623047"/>
      </g>
     </g>
    </g>
    <g id="xtick_7">
     <g id="line2d_13">
      <path d="M 642.861327 388.24 
L 642.861327 27.6 
" clip-path="url(#p21eeba16a5)" style="fill: none; stroke: #b0b0b0; stroke-opacity: 0.3; stroke-width: 0.8; stroke-linecap: square"/>
     </g>
     <g id="line2d_14">
      <g>
       <use xlink:href="#m81c19b17fd" x="642.861327" y="388.24" style="stroke: #000000; stroke-width: 0.8"/>
      </g>
     </g>
     <g id="text_7">
      <!-- 60 -->
      <g transform="translate(636.498827 402.838437) scale(0.1 -0.1)">
       <defs>
        <path id="DejaVuSans-36" d="M 2113 2584 
Q 1688 2584 1439 2293 
Q 1191 2003 1191 1497 
Q 1191 994 1439 701 
Q 1688 409 2113 409 
Q 2538 409 2786 701 
Q 3034 994 3034 1497 
Q 3034 2003 2786 2293 
Q 2538 2584 2113 2584 
z
M 3366 4563 
L 3366 3988 
Q 3128 4100 2886 4159 
Q 2644 4219 2406 4219 
Q 1781 4219 1451 3797 
Q 1122 3375 1075 2522 
Q 1259 2794 1537 2939 
Q 1816 3084 2150 3084 
Q 2853 3084 3261 2657 
Q 3669 2231 3669 1497 
Q 3669 778 3244 343 
Q 2819 -91 2113 -91 
Q 1303 -91 875 529 
Q 447 1150 447 2328 
Q 447 3434 972 4092 
Q 1497 4750 2381 4750 
Q 2619 4750 2861 4703 
Q 3103 4656 3366 4563 
z
" transform="scale(0.015625)"/>
       </defs>
       <use xlink:href="#DejaVuSans-36"/>
       <use xlink:href="#DejaVuSans-30" x="63.623047"/>
      </g>
     </g>
    </g>
    <g id="text_8">
     <!-- Number of Nodes -->
     <g transform="translate(338.100625 418.03625) scale(0.12 -0.12)">
      <defs>
       <path id="DejaVuSans-4e" d="M 628 4666 
L 1478 4666 
L 3547 763 
L 3547 4666 
L 4159 4666 
L 4159 0 
L 3309 0 
L 1241 3903 
L 1241 0 
L 628 0 
L 628 4666 
z
" transform="scale(0.015625)"/>
       <path id="DejaVuSans-75" d="M 544 1381 
L 544 3500 
L 1119 3500 
L 1119 1403 
Q 1119 906 1312 657 
Q 1506 409 1894 409 
Q 2359 409 2629 706 
Q 2900 1003 2900 1516 
L 2900 3500 
L 3475 3500 
L 3475 0 
L 2900 0 
L 2900 538 
Q 2691 219 2414 64 
Q 2138 -91 1772 -91 
Q 1169 -91 856 284 
Q 544 659 544 1381 
z
M 1991 3584 
L 1991 3584 
z
" transform="scale(0.015625)"/>
       <path id="DejaVuSans-6d" d="M 3328 2828 
Q 3544 3216 3844 3400 
Q 4144 3584 4550 3584 
Q 5097 3584 5394 3201 
Q 5691 2819 5691 2113 
L 5691 0 
L 5113 0 
L 5113 2094 
Q 5113 2597 4934 2840 
Q 4756 3084 4391 3084 
Q 3944 3084 3684 2787 
Q 3425 2491 3425 1978 
L 3425 0 
L 2847 0 
L 2847 2094 
Q 2847 2600 2669 2842 
Q 2491 3084 2119 3084 
Q 1678 3084 1418 2786 
Q 1159 2488 1159 1978 
L 1159 0 
L 581 0 
L 581 3500 
L 1159 3500 
L 1159 2956 
Q 1356 3278 1631 3431 
Q 1906 3584 2284 3584 
Q 2666 3584 2933 3390 
Q 3200 3197 3328 2828 
z
" transform="scale(0.015625)"/>
       <path id="DejaVuSans-62" d="M 3116 1747 
Q 3116 2381 2855 2742 
Q 2594 3103 2138 3103 
Q 1681 3103 1420 2742 
Q 1159 2381 1159 1747 
Q 1159 1113 1420 752 
Q 1681 391 2138 391 
Q 2594 391 2855 752 
Q 3116 1113 3116 1747 
z
M 1159 2969 
Q 1341 3281 1617 3432 
Q 1894 3584 2278 3584 
Q 2916 3584 3314 3078 
Q 3713 2572 3713 1747 
Q 3713 922 3314 415 
Q 2916 -91 2278 -91 
Q 1894 -91 1617 61 
Q 1341 213 1159 525 
L 1159 0 
L 581 0 
L 581 4863 
L 1159 4863 
L 1159 2969 
z
" transform="scale(0.015625)"/>
       <path id="DejaVuSans-65" d="M 3597 1894 
L 3597 1613 
L 953 1613 
Q 991 1019 1311 708 
Q 1631 397 2203 397 
Q 2534 397 2845 478 
Q 3156 559 3463 722 
L 3463 178 
Q 3153 47 2828 -22 
Q 2503 -91 2169 -91 
Q 1331 -91 842 396 
Q 353 884 353 1716 
Q 353 2575 817 3079 
Q 1281 3584 2069 3584 
Q 2775 3584 3186 3129 
Q 3597 2675 3597 1894 
z
M 3022 2063 
Q 3016 2534 2758 2815 
Q 2500 3097 2075 3097 
Q 1594 3097 1305 2825 
Q 1016 2553 972 2059 
L 3022 2063 
z
" transform="scale(0.015625)"/>
       <path id="DejaVuSans-72" d="M 2631 2963 
Q 2534 3019 2420 3045 
Q 2306 3072 2169 3072 
Q 1681 3072 1420 2755 
Q 1159 2438 1159 1844 
L 1159 0 
L 581 0 
L 581 3500 
L 1159 3500 
L 1159 2956 
Q 1341 3275 1631 3429 
Q 1922 3584 2338 3584 
Q 2397 3584 2469 3576 
Q 2541 3569 2628 3553 
L 2631 2963 
z
" transform="scale(0.015625)"/>
       <path id="DejaVuSans-20" transform="scale(0.015625)"/>
       <path id="DejaVuSans-6f" d="M 1959 3097 
Q 1497 3097 1228 2736 
Q 959 2375 959 1747 
Q 959 1119 1226 758 
Q 1494 397 1959 397 
Q 2419 397 2687 759 
Q 2956 1122 2956 1747 
Q 2956 2369 2687 2733 
Q 2419 3097 1959 3097 
z
M 1959 3584 
Q 2709 3584 3137 3096 
Q 3566 2609 3566 1747 
Q 3566 888 3137 398 
Q 2709 -91 1959 -91 
Q 1206 -91 779 398 
Q 353 888 353 1747 
Q 353 2609 779 3096 
Q 1206 3584 1959 3584 
z
" transform="scale(0.015625)"/>
       <path id="DejaVuSans-66" d="M 2375 4863 
L 2375 4384 
L 1825 4384 
Q 1516 4384 1395 4259 
Q 1275 4134 1275 3809 
L 1275 3500 
L 2222 3500 
L 2222 3053 
L 1275 3053 
L 1275 0 
L 697 0 
L 697 3053 
L 147 3053 
L 147 3500 
L 697 3500 
L 697 3744 
Q 697 4328 969 4595 
Q 1241 4863 1831 4863 
L 2375 4863 
z
" transform="scale(0.015625)"/>
       <path id="DejaVuSans-64" d="M 2906 2969 
L 2906 4863 
L 3481 4863 
L 3481 0 
L 2906 0 
L 2906 525 
Q 2725 213 2448 61 
Q 2172 -91 1784 -91 
Q 1150 -91 751 415 
Q 353 922 353 1747 
Q 353 2572 751 3078 
Q 1150 3584 1784 3584 
Q 2172 3584 2448 3432 
Q 2725 3281 2906 2969 
z
M 947 1747 
Q 947 1113 1208 752 
Q 1469 391 1925 391 
Q 2381 391 2643 752 
Q 2906 1113 2906 1747 
Q 2906 2381 2643 2742 
Q 2381 3103 1925 3103 
Q 1469 3103 1208 2742 
Q 947 2381 947 1747 
z
" transform="scale(0.015625)"/>
       <path id="DejaVuSans-73" d="M 2834 3397 
L 2834 2853 
Q 2591 2978 2328 3040 
Q 2066 3103 1784 3103 
Q 1356 3103 1142 2972 
Q 928 2841 928 2578 
Q 928 2378 1081 2264 
Q 1234 2150 1697 2047 
L 1894 2003 
Q 2506 1872 2764 1633 
Q 3022 1394 3022 966 
Q 3022 478 2636 193 
Q 2250 -91 1575 -91 
Q 1294 -91 989 -36 
Q 684 19 347 128 
L 347 722 
Q 666 556 975 473 
Q 1284 391 1588 391 
Q 1994 391 2212 530 
Q 2431 669 2431 922 
Q 2431 1156 2273 1281 
Q 2116 1406 1581 1522 
L 1381 1569 
Q 847 1681 609 1914 
Q 372 2147 372 2553 
Q 372 3047 722 3315 
Q 1072 3584 1716 3584 
Q 2034 3584 2315 3537 
Q 2597 3491 2834 3397 
z
" transform="scale(0.015625)"/>
      </defs>
      <use xlink:href="#DejaVuSans-4e"/>
      <use xlink:href="#DejaVuSans-75" x="74.804688"/>
      <use xlink:href="#DejaVuSans-6d" x="138.183594"/>
      <use xlink:href="#DejaVuSans-62" x="235.595703"/>
      <use xlink:href="#DejaVuSans-65" x="299.072266"/>
      <use xlink:href="#DejaVuSans-72" x="360.595703"/>
      <use xlink:href="#DejaVuSans-20" x="401.708984"/>
      <use xlink:href="#DejaVuSans-6f" x="433.496094"/>
      <use xlink:href="#DejaVuSans-66" x="494.677734"/>
      <use xlink:href="#DejaVuSans-20" x="529.882812"/>
      <use xlink:href="#DejaVuSans-4e" x="561.669922"/>
      <use xlink:href="#DejaVuSans-6f" x="636.474609"/>
      <use xlink:href="#DejaVuSans-64" x="697.65625"/>
      <use xlink:href="#DejaVuSans-65" x="761.132812"/>
      <use xlink:href="#DejaVuSans-73" x="822.65625"/>
     </g>
    </g>
   </g>
   <g id="matplotlib.axis_2">
    <g id="ytick_1">
     <g id="line2d_15">
      <path d="M 71.975 377.223347 
L 709.2 377.223347 
" clip-path="url(#p21eeba16a5)" style="fill: none; stroke: #b0b0b0; stroke-opacity: 0.3; stroke-width: 0.8; stroke-linecap: square"/>
     </g>
     <g id="line2d_16">
      <defs>
       <path id="mfb3a0d3d77" d="M 0 0 
L -3.5 0 
" style="stroke: #000000; stroke-width: 0.8"/>
      </defs>
      <g>
       <use xlink:href="#mfb3a0d3d77" x="71.975" y="377.223347" style="stroke: #000000; stroke-width: 0.8"/>
      </g>
     </g>
     <g id="text_9">
      <!-- 0 -->
      <g transform="translate(58.6125 381.022566) scale(0.1 -0.1)">
       <use xlink:href="#DejaVuSans-30"/>
      </g>
     </g>
    </g>
    <g id="ytick_2">
     <g id="line2d_17">
      <path d="M 71.975 335.864314 
L 709.2 335.864314 
" clip-path="url(#p21eeba16a5)" style="fill: none; stroke: #b0b0b0; stroke-opacity: 0.3; stroke-width: 0.8; stroke-linecap: square"/>
     </g>
     <g id="line2d_18">
      <g>
       <use xlink:href="#mfb3a0d3d77" x="71.975" y="335.864314" style="stroke: #000000; stroke-width: 0.8"/>
      </g>
     </g>
     <g id="text_10">
      <!-- 20000 -->
      <g transform="translate(33.1625 339.663533) scale(0.1 -0.1)">
       <use xlink:href="#DejaVuSans-32"/>
       <use xlink:href="#DejaVuSans-30" x="63.623047"/>
       <use xlink:href="#DejaVuSans-30" x="127.246094"/>
       <use xlink:href="#DejaVuSans-30" x="190.869141"/>
       <use xlink:href="#DejaVuSans-30" x="254.492188"/>
      </g>
     </g>
    </g>
    <g id="ytick_3">
     <g id="line2d_19">
      <path d="M 71.975 294.505281 
L 709.2 294.505281 
" clip-path="url(#p21eeba16a5)" style="fill: none; stroke: #b0b0b0; stroke-opacity: 0.3; stroke-width: 0.8; stroke-linecap: square"/>
     </g>
     <g id="line2d_20">
      <g>
       <use xlink:href="#mfb3a0d3d77" x="71.975" y="294.505281" style="stroke: #000000; stroke-width: 0.8"/>
      </g>
     </g>
     <g id="text_11">
      <!-- 40000 -->
      <g transform="translate(33.1625 298.3045) scale(0.1 -0.1)">
       <use xlink:href="#DejaVuSans-34"/>
       <use xlink:href="#DejaVuSans-30" x="63.623047"/>
       <use xlink:href="#DejaVuSans-30" x="127.246094"/>
       <use xlink:href="#DejaVuSans-30" x="190.869141"/>
       <use xlink:href="#DejaVuSans-30" x="254.492188"/>
      </g>
     </g>
    </g>
    <g id="ytick_4">
     <g id="line2d_21">
      <path d="M 71.975 253.146248 
L 709.2 253.146248 
" clip-path="url(#p21eeba16a5)" style="fill: none; stroke: #b0b0b0; stroke-opacity: 0.3; stroke-width: 0.8; stroke-linecap: square"/>
     </g>
     <g id="line2d_22">
      <g>
       <use xlink:href="#mfb3a0d3d77" x="71.975" y="253.146248" style="stroke: #000000; stroke-width: 0.8"/>
      </g>
     </g>
     <g id="text_12">
      <!-- 60000 -->
      <g transform="translate(33.1625 256.945466) scale(0.1 -0.1)">
       <use xlink:href="#DejaVuSans-36"/>
       <use xlink:href="#DejaVuSans-30" x="63.623047"/>
       <use xlink:href="#DejaVuSans-30" x="127.246094"/>
       <use xlink:href="#DejaVuSans-30" x="190.869141"/>
       <use xlink:href="#DejaVuSans-30" x="254.492188"/>
      </g>
     </g>
    </g>
    <g id="ytick_5">
     <g id="line2d_23">
      <path d="M 71.975 211.787214 
L 709.2 211.787214 
" clip-path="url(#p21eeba16a5)" style="fill: none; stroke: #b0b0b0; stroke-opacity: 0.3; stroke-width: 0.8; stroke-linecap: square"/>
     </g>
     <g id="line2d_24">
      <g>
       <use xlink:href="#mfb3a0d3d77" x="71.975" y="211.787214" style="stroke: #000000; stroke-width: 0.8"/>
      </g>
     </g>
     <g id="text_13">
      <!-- 80000 -->
      <g transform="translate(33.1625 215.586433) scale(0.1 -0.1)">
       <defs>
        <path id="DejaVuSans-38" d="M 2034 2216 
Q 1584 2216 1326 1975 
Q 1069 1734 1069 1313 
Q 1069 891 1326 650 
Q 1584 409 2034 409 
Q 2484 409 2743 651 
Q 3003 894 3003 1313 
Q 3003 1734 2745 1975 
Q 2488 2216 2034 2216 
z
M 1403 2484 
Q 997 2584 770 2862 
Q 544 3141 544 3541 
Q 544 4100 942 4425 
Q 1341 4750 2034 4750 
Q 2731 4750 3128 4425 
Q 3525 4100 3525 3541 
Q 3525 3141 3298 2862 
Q 3072 2584 2669 2484 
Q 3125 2378 3379 2068 
Q 3634 1759 3634 1313 
Q 3634 634 3220 271 
Q 2806 -91 2034 -91 
Q 1263 -91 848 271 
Q 434 634 434 1313 
Q 434 1759 690 2068 
Q 947 2378 1403 2484 
z
M 1172 3481 
Q 1172 3119 1398 2916 
Q 1625 2713 2034 2713 
Q 2441 2713 2670 2916 
Q 2900 3119 2900 3481 
Q 2900 3844 2670 4047 
Q 2441 4250 2034 4250 
Q 1625 4250 1398 4047 
Q 1172 3844 1172 3481 
z
" transform="scale(0.015625)"/>
       </defs>
       <use xlink:href="#DejaVuSans-38"/>
       <use xlink:href="#DejaVuSans-30" x="63.623047"/>
       <use xlink:href="#DejaVuSans-30" x="127.246094"/>
       <use xlink:href="#DejaVuSans-30" x="190.869141"/>
       <use xlink:href="#DejaVuSans-30" x="254.492188"/>
      </g>
     </g>
    </g>
    <g id="ytick_6">
     <g id="line2d_25">
      <path d="M 71.975 170.428181 
L 709.2 170.428181 
" clip-path="url(#p21eeba16a5)" style="fill: none; stroke: #b0b0b0; stroke-opacity: 0.3; stroke-width: 0.8; stroke-linecap: square"/>
     </g>
     <g id="line2d_26">
      <g>
       <use xlink:href="#mfb3a0d3d77" x="71.975" y="170.428181" style="stroke: #000000; stroke-width: 0.8"/>
      </g>
     </g>
     <g id="text_14">
      <!-- 100000 -->
      <g transform="translate(26.8 174.2274) scale(0.1 -0.1)">
       <use xlink:href="#DejaVuSans-31"/>
       <use xlink:href="#DejaVuSans-30" x="63.623047"/>
       <use xlink:href="#DejaVuSans-30" x="127.246094"/>
       <use xlink:href="#DejaVuSans-30" x="190.869141"/>
       <use xlink:href="#DejaVuSans-30" x="254.492188"/>
       <use xlink:href="#DejaVuSans-30" x="318.115234"/>
      </g>
     </g>
    </g>
    <g id="ytick_7">
     <g id="line2d_27">
      <path d="M 71.975 129.069148 
L 709.2 129.069148 
" clip-path="url(#p21eeba16a5)" style="fill: none; stroke: #b0b0b0; stroke-opacity: 0.3; stroke-width: 0.8; stroke-linecap: square"/>
     </g>
     <g id="line2d_28">
      <g>
       <use xlink:href="#mfb3a0d3d77" x="71.975" y="129.069148" style="stroke: #000000; stroke-width: 0.8"/>
      </g>
     </g>
     <g id="text_15">
      <!-- 120000 -->
      <g transform="translate(26.8 132.868367) scale(0.1 -0.1)">
       <use xlink:href="#DejaVuSans-31"/>
       <use xlink:href="#DejaVuSans-32" x="63.623047"/>
       <use xlink:href="#DejaVuSans-30" x="127.246094"/>
       <use xlink:href="#DejaVuSans-30" x="190.869141"/>
       <use xlink:href="#DejaVuSans-30" x="254.492188"/>
       <use xlink:href="#DejaVuSans-30" x="318.115234"/>
      </g>
     </g>
    </g>
    <g id="ytick_8">
     <g id="line2d_29">
      <path d="M 71.975 87.710115 
L 709.2 87.710115 
" clip-path="url(#p21eeba16a5)" style="fill: none; stroke: #b0b0b0; stroke-opacity: 0.3; stroke-width: 0.8; stroke-linecap: square"/>
     </g>
     <g id="line2d_30">
      <g>
       <use xlink:href="#mfb3a0d3d77" x="71.975" y="87.710115" style="stroke: #000000; stroke-width: 0.8"/>
      </g>
     </g>
     <g id="text_16">
      <!-- 140000 -->
      <g transform="translate(26.8 91.509333) scale(0.1 -0.1)">
       <use xlink:href="#DejaVuSans-31"/>
       <use xlink:href="#DejaVuSans-34" x="63.623047"/>
       <use xlink:href="#DejaVuSans-30" x="127.246094"/>
       <use xlink:href="#DejaVuSans-30" x="190.869141"/>
       <use xlink:href="#DejaVuSans-30" x="254.492188"/>
       <use xlink:href="#DejaVuSans-30" x="318.115234"/>
      </g>
     </g>
    </g>
    <g id="ytick_9">
     <g id="line2d_31">
      <path d="M 71.975 46.351081 
L 709.2 46.351081 
" clip-path="url(#p21eeba16a5)" style="fill: none; stroke: #b0b0b0; stroke-opacity: 0.3; stroke-width: 0.8; stroke-linecap: square"/>
     </g>
     <g id="line2d_32">
      <g>
       <use xlink:href="#mfb3a0d3d77" x="71.975" y="46.351081" style="stroke: #000000; stroke-width: 0.8"/>
      </g>
     </g>
     <g id="text_17">
      <!-- 160000 -->
      <g transform="translate(26.8 50.1503) scale(0.1 -0.1)">
       <use xlink:href="#DejaVuSans-31"/>
       <use xlink:href="#DejaVuSans-36" x="63.623047"/>
       <use xlink:href="#DejaVuSans-30" x="127.246094"/>
       <use xlink:href="#DejaVuSans-30" x="190.869141"/>
       <use xlink:href="#DejaVuSans-30" x="254.492188"/>
       <use xlink:href="#DejaVuSans-30" x="318.115234"/>
      </g>
     </g>
    </g>
    <g id="text_18">
     <!-- Barrier Time (ns) -->
     <g transform="translate(20.304375 258.470937) rotate(-90) scale(0.12 -0.12)">
      <defs>
       <path id="DejaVuSans-42" d="M 1259 2228 
L 1259 519 
L 2272 519 
Q 2781 519 3026 730 
Q 3272 941 3272 1375 
Q 3272 1813 3026 2020 
Q 2781 2228 2272 2228 
L 1259 2228 
z
M 1259 4147 
L 1259 2741 
L 2194 2741 
Q 2656 2741 2882 2914 
Q 3109 3088 3109 3444 
Q 3109 3797 2882 3972 
Q 2656 4147 2194 4147 
L 1259 4147 
z
M 628 4666 
L 2241 4666 
Q 2963 4666 3353 4366 
Q 3744 4066 3744 3513 
Q 3744 3084 3544 2831 
Q 3344 2578 2956 2516 
Q 3422 2416 3680 2098 
Q 3938 1781 3938 1306 
Q 3938 681 3513 340 
Q 3088 0 2303 0 
L 628 0 
L 628 4666 
z
" transform="scale(0.015625)"/>
       <path id="DejaVuSans-61" d="M 2194 1759 
Q 1497 1759 1228 1600 
Q 959 1441 959 1056 
Q 959 750 1161 570 
Q 1363 391 1709 391 
Q 2188 391 2477 730 
Q 2766 1069 2766 1631 
L 2766 1759 
L 2194 1759 
z
M 3341 1997 
L 3341 0 
L 2766 0 
L 2766 531 
Q 2569 213 2275 61 
Q 1981 -91 1556 -91 
Q 1019 -91 701 211 
Q 384 513 384 1019 
Q 384 1609 779 1909 
Q 1175 2209 1959 2209 
L 2766 2209 
L 2766 2266 
Q 2766 2663 2505 2880 
Q 2244 3097 1772 3097 
Q 1472 3097 1187 3025 
Q 903 2953 641 2809 
L 641 3341 
Q 956 3463 1253 3523 
Q 1550 3584 1831 3584 
Q 2591 3584 2966 3190 
Q 3341 2797 3341 1997 
z
" transform="scale(0.015625)"/>
       <path id="DejaVuSans-69" d="M 603 3500 
L 1178 3500 
L 1178 0 
L 603 0 
L 603 3500 
z
M 603 4863 
L 1178 4863 
L 1178 4134 
L 603 4134 
L 603 4863 
z
" transform="scale(0.015625)"/>
       <path id="DejaVuSans-54" d="M -19 4666 
L 3928 4666 
L 3928 4134 
L 2272 4134 
L 2272 0 
L 1638 0 
L 1638 4134 
L -19 4134 
L -19 4666 
z
" transform="scale(0.015625)"/>
       <path id="DejaVuSans-28" d="M 1984 4856 
Q 1566 4138 1362 3434 
Q 1159 2731 1159 2009 
Q 1159 1288 1364 580 
Q 1569 -128 1984 -844 
L 1484 -844 
Q 1016 -109 783 600 
Q 550 1309 550 2009 
Q 550 2706 781 3412 
Q 1013 4119 1484 4856 
L 1984 4856 
z
" transform="scale(0.015625)"/>
       <path id="DejaVuSans-6e" d="M 3513 2113 
L 3513 0 
L 2938 0 
L 2938 2094 
Q 2938 2591 2744 2837 
Q 2550 3084 2163 3084 
Q 1697 3084 1428 2787 
Q 1159 2491 1159 1978 
L 1159 0 
L 581 0 
L 581 3500 
L 1159 3500 
L 1159 2956 
Q 1366 3272 1645 3428 
Q 1925 3584 2291 3584 
Q 2894 3584 3203 3211 
Q 3513 2838 3513 2113 
z
" transform="scale(0.015625)"/>
       <path id="DejaVuSans-29" d="M 513 4856 
L 1013 4856 
Q 1481 4119 1714 3412 
Q 1947 2706 1947 2009 
Q 1947 1309 1714 600 
Q 1481 -109 1013 -844 
L 513 -844 
Q 928 -128 1133 580 
Q 1338 1288 1338 2009 
Q 1338 2731 1133 3434 
Q 928 4138 513 4856 
z
" transform="scale(0.015625)"/>
      </defs>
      <use xlink:href="#DejaVuSans-42"/>
      <use xlink:href="#DejaVuSans-61" x="68.603516"/>
      <use xlink:href="#DejaVuSans-72" x="129.882812"/>
      <use xlink:href="#DejaVuSans-72" x="169.246094"/>
      <use xlink:href="#DejaVuSans-69" x="210.359375"/>
      <use xlink:href="#DejaVuSans-65" x="238.142578"/>
      <use xlink:href="#DejaVuSans-72" x="299.666016"/>
      <use xlink:href="#DejaVuSans-20" x="340.779297"/>
      <use xlink:href="#DejaVuSans-54" x="372.566406"/>
      <use xlink:href="#DejaVuSans-69" x="430.525391"/>
      <use xlink:href="#DejaVuSans-6d" x="458.308594"/>
      <use xlink:href="#DejaVuSans-65" x="555.720703"/>
      <use xlink:href="#DejaVuSans-20" x="617.244141"/>
      <use xlink:href="#DejaVuSans-28" x="649.03125"/>
      <use xlink:href="#DejaVuSans-6e" x="688.044922"/>
      <use xlink:href="#DejaVuSans-73" x="751.423828"/>
      <use xlink:href="#DejaVuSans-29" x="803.523438"/>
     </g>
    </g>
   </g>
   <g id="line2d_33">
    <path d="M 100.939773 369.693584 
L 119.626723 360.312838 
L 138.313673 349.042998 
L 157.000623 338.973686 
L 175.687573 330.099961 
L 194.374523 320.007364 
L 213.061474 309.645293 
L 231.748424 298.975386 
L 250.435374 288.957959 
L 269.122324 280.138125 
L 287.809274 269.827297 
L 306.496224 258.826518 
L 325.183174 248.372878 
L 343.870125 239.064386 
L 362.557075 230.12885 
L 381.244025 216.57626 
L 399.930975 206.70878 
L 418.617925 195.052977 
L 437.304875 186.936908 
L 455.991826 175.282801 
L 474.678776 165.175956 
L 493.365726 154.984594 
L 512.052676 142.080824 
L 530.739626 130.910018 
L 549.426576 120.061647 
L 568.113526 109.513191 
L 586.800477 98.087158 
L 605.487427 88.47232 
L 624.174377 79.521646 
L 642.861327 69.326293 
L 661.548277 58.380956 
L 680.235227 44.49555 
" clip-path="url(#p21eeba16a5)" style="fill: none; stroke: #1f77b4; stroke-width: 2; stroke-linecap: square"/>
    <defs>
     <path id="mabddda1f7b" d="M 0 3 
C 0.795609 3 1.55874 2.683901 2.12132 2.12132 
C 2.683901 1.55874 3 0.795609 3 0 
C 3 -0.795609 2.683901 -1.55874 2.12132 -2.12132 
C 1.55874 -2.683901 0.795609 -3 0 -3 
C -0.795609 -3 -1.55874 -2.683901 -2.12132 -2.12132 
C -2.683901 -1.55874 -3 -0.795609 -3 0 
C -3 0.795609 -2.683901 1.55874 -2.12132 2.12132 
C -1.55874 2.683901 -0.795609 3 0 3 
z
" style="stroke: #1f77b4"/>
    </defs>
    <g clip-path="url(#p21eeba16a5)">
     <use xlink:href="#mabddda1f7b" x="100.939773" y="369.693584" style="fill: #1f77b4; stroke: #1f77b4"/>
     <use xlink:href="#mabddda1f7b" x="119.626723" y="360.312838" style="fill: #1f77b4; stroke: #1f77b4"/>
     <use xlink:href="#mabddda1f7b" x="138.313673" y="349.042998" style="fill: #1f77b4; stroke: #1f77b4"/>
     <use xlink:href="#mabddda1f7b" x="157.000623" y="338.973686" style="fill: #1f77b4; stroke: #1f77b4"/>
     <use xlink:href="#mabddda1f7b" x="175.687573" y="330.099961" style="fill: #1f77b4; stroke: #1f77b4"/>
     <use xlink:href="#mabddda1f7b" x="194.374523" y="320.007364" style="fill: #1f77b4; stroke: #1f77b4"/>
     <use xlink:href="#mabddda1f7b" x="213.061474" y="309.645293" style="fill: #1f77b4; stroke: #1f77b4"/>
     <use xlink:href="#mabddda1f7b" x="231.748424" y="298.975386" style="fill: #1f77b4; stroke: #1f77b4"/>
     <use xlink:href="#mabddda1f7b" x="250.435374" y="288.957959" style="fill: #1f77b4; stroke: #1f77b4"/>
     <use xlink:href="#mabddda1f7b" x="269.122324" y="280.138125" style="fill: #1f77b4; stroke: #1f77b4"/>
     <use xlink:href="#mabddda1f7b" x="287.809274" y="269.827297" style="fill: #1f77b4; stroke: #1f77b4"/>
     <use xlink:href="#mabddda1f7b" x="306.496224" y="258.826518" style="fill: #1f77b4; stroke: #1f77b4"/>
     <use xlink:href="#mabddda1f7b" x="325.183174" y="248.372878" style="fill: #1f77b4; stroke: #1f77b4"/>
     <use xlink:href="#mabddda1f7b" x="343.870125" y="239.064386" style="fill: #1f77b4; stroke: #1f77b4"/>
     <use xlink:href="#mabddda1f7b" x="362.557075" y="230.12885" style="fill: #1f77b4; stroke: #1f77b4"/>
     <use xlink:href="#mabddda1f7b" x="381.244025" y="216.57626" style="fill: #1f77b4; stroke: #1f77b4"/>
     <use xlink:href="#mabddda1f7b" x="399.930975" y="206.70878" style="fill: #1f77b4; stroke: #1f77b4"/>
     <use xlink:href="#mabddda1f7b" x="418.617925" y="195.052977" style="fill: #1f77b4; stroke: #1f77b4"/>
     <use xlink:href="#mabddda1f7b" x="437.304875" y="186.936908" style="fill: #1f77b4; stroke: #1f77b4"/>
     <use xlink:href="#mabddda1f7b" x="455.991826" y="175.282801" style="fill: #1f77b4; stroke: #1f77b4"/>
     <use xlink:href="#mabddda1f7b" x="474.678776" y="165.175956" style="fill: #1f77b4; stroke: #1f77b4"/>
     <use xlink:href="#mabddda1f7b" x="493.365726" y="154.984594" style="fill: #1f77b4; stroke: #1f77b4"/>
     <use xlink:href="#mabddda1f7b" x="512.052676" y="142.080824" style="fill: #1f77b4; stroke: #1f77b4"/>
     <use xlink:href="#mabddda1f7b" x="530.739626" y="130.910018" style="fill: #1f77b4; stroke: #1f77b4"/>
     <use xlink:href="#mabddda1f7b" x="549.426576" y="120.061647" style="fill: #1f77b4; stroke: #1f77b4"/>
     <use xlink:href="#mabddda1f7b" x="568.113526" y="109.513191" style="fill: #1f77b4; stroke: #1f77b4"/>
     <use xlink:href="#mabddda1f7b" x="586.800477" y="98.087158" style="fill: #1f77b4; stroke: #1f77b4"/>
     <use xlink:href="#mabddda1f7b" x="605.487427" y="88.47232" style="fill: #1f77b4; stroke: #1f77b4"/>
     <use xlink:href="#mabddda1f7b" x="624.174377" y="79.521646" style="fill: #1f77b4; stroke: #1f77b4"/>
     <use xlink:href="#mabddda1f7b" x="642.861327" y="69.326293" style="fill: #1f77b4; stroke: #1f77b4"/>
     <use xlink:href="#mabddda1f7b" x="661.548277" y="58.380956" style="fill: #1f77b4; stroke: #1f77b4"/>
     <use xlink:href="#mabddda1f7b" x="680.235227" y="44.49555" style="fill: #1f77b4; stroke: #1f77b4"/>
    </g>
   </g>
   <g id="line2d_34">
    <path d="M 100.939773 369.53309 
L 119.626723 362.510802 
L 138.313673 356.198359 
L 157.000623 351.707057 
L 175.687573 348.266668 
L 194.374523 342.893116 
L 213.061474 343.266506 
L 231.748424 339.118319 
L 250.435374 339.050552 
L 269.122324 338.753698 
L 287.809274 334.535117 
L 306.496224 329.383602 
L 325.183174 330.7725 
L 343.870125 330.697371 
L 362.557075 330.823496 
L 381.244025 327.392185 
L 399.930975 326.782636 
L 418.617925 326.697436 
L 437.304875 326.232209 
L 455.991826 326.640815 
L 474.678776 326.021009 
L 493.365726 322.412164 
L 512.052676 322.694853 
L 530.739626 317.57475 
L 549.426576 317.902644 
L 568.113526 318.514179 
L 586.800477 318.278536 
L 605.487427 317.897785 
L 624.174377 317.821974 
L 642.861327 317.334578 
L 661.548277 317.643075 
L 680.235227 315.045004 
" clip-path="url(#p21eeba16a5)" style="fill: none; stroke: #ff7f0e; stroke-width: 2; stroke-linecap: square"/>
    <defs>
     <path id="m4e81e02890" d="M 0 3 
C 0.795609 3 1.55874 2.683901 2.12132 2.12132 
C 2.683901 1.55874 3 0.795609 3 0 
C 3 -0.795609 2.683901 -1.55874 2.12132 -2.12132 
C 1.55874 -2.683901 0.795609 -3 0 -3 
C -0.795609 -3 -1.55874 -2.683901 -2.12132 -2.12132 
C -2.683901 -1.55874 -3 -0.795609 -3 0 
C -3 0.795609 -2.683901 1.55874 -2.12132 2.12132 
C -1.55874 2.683901 -0.795609 3 0 3 
z
" style="stroke: #ff7f0e"/>
    </defs>
    <g clip-path="url(#p21eeba16a5)">
     <use xlink:href="#m4e81e02890" x="100.939773" y="369.53309" style="fill: #ff7f0e; stroke: #ff7f0e"/>
     <use xlink:href="#m4e81e02890" x="119.626723" y="362.510802" style="fill: #ff7f0e; stroke: #ff7f0e"/>
     <use xlink:href="#m4e81e02890" x="138.313673" y="356.198359" style="fill: #ff7f0e; stroke: #ff7f0e"/>
     <use xlink:href="#m4e81e02890" x="157.000623" y="351.707057" style="fill: #ff7f0e; stroke: #ff7f0e"/>
     <use xlink:href="#m4e81e02890" x="175.687573" y="348.266668" style="fill: #ff7f0e; stroke: #ff7f0e"/>
     <use xlink:href="#m4e81e02890" x="194.374523" y="342.893116" style="fill: #ff7f0e; stroke: #ff7f0e"/>
     <use xlink:href="#m4e81e02890" x="213.061474" y="343.266506" style="fill: #ff7f0e; stroke: #ff7f0e"/>
     <use xlink:href="#m4e81e02890" x="231.748424" y="339.118319" style="fill: #ff7f0e; stroke: #ff7f0e"/>
     <use xlink:href="#m4e81e02890" x="250.435374" y="339.050552" style="fill: #ff7f0e; stroke: #ff7f0e"/>
     <use xlink:href="#m4e81e02890" x="269.122324" y="338.753698" style="fill: #ff7f0e; stroke: #ff7f0e"/>
     <use xlink:href="#m4e81e02890" x="287.809274" y="334.535117" style="fill: #ff7f0e; stroke: #ff7f0e"/>
     <use xlink:href="#m4e81e02890" x="306.496224" y="329.383602" style="fill: #ff7f0e; stroke: #ff7f0e"/>
     <use xlink:href="#m4e81e02890" x="325.183174" y="330.7725" style="fill: #ff7f0e; stroke: #ff7f0e"/>
     <use xlink:href="#m4e81e02890" x="343.870125" y="330.697371" style="fill: #ff7f0e; stroke: #ff7f0e"/>
     <use xlink:href="#m4e81e02890" x="362.557075" y="330.823496" style="fill: #ff7f0e; stroke: #ff7f0e"/>
     <use xlink:href="#m4e81e02890" x="381.244025" y="327.392185" style="fill: #ff7f0e; stroke: #ff7f0e"/>
     <use xlink:href="#m4e81e02890" x="399.930975" y="326.782636" style="fill: #ff7f0e; stroke: #ff7f0e"/>
     <use xlink:href="#m4e81e02890" x="418.617925" y="326.697436" style="fill: #ff7f0e; stroke: #ff7f0e"/>
     <use xlink:href="#m4e81e02890" x="437.304875" y="326.232209" style="fill: #ff7f0e; stroke: #ff7f0e"/>
     <use xlink:href="#m4e81e02890" x="455.991826" y="326.640815" style="fill: #ff7f0e; stroke: #ff7f0e"/>
     <use xlink:href="#m4e81e02890" x="474.678776" y="326.021009" style="fill: #ff7f0e; stroke: #ff7f0e"/>
     <use xlink:href="#m4e81e02890" x="493.365726" y="322.412164" style="fill: #ff7f0e; stroke: #ff7f0e"/>
     <use xlink:href="#m4e81e02890" x="512.052676" y="322.694853" style="fill: #ff7f0e; stroke: #ff7f0e"/>
     <use xlink:href="#m4e81e02890" x="530.739626" y="317.57475" style="fill: #ff7f0e; stroke: #ff7f0e"/>
     <use xlink:href="#m4e81e02890" x="549.426576" y="317.902644" style="fill: #ff7f0e; stroke: #ff7f0e"/>
     <use xlink:href="#m4e81e02890" x="568.113526" y="318.514179" style="fill: #ff7f0e; stroke: #ff7f0e"/>
     <use xlink:href="#m4e81e02890" x="586.800477" y="318.278536" style="fill: #ff7f0e; stroke: #ff7f0e"/>
     <use xlink:href="#m4e81e02890" x="605.487427" y="317.897785" style="fill: #ff7f0e; stroke: #ff7f0e"/>
     <use xlink:href="#m4e81e02890" x="624.174377" y="317.821974" style="fill: #ff7f0e; stroke: #ff7f0e"/>
     <use xlink:href="#m4e81e02890" x="642.861327" y="317.334578" style="fill: #ff7f0e; stroke: #ff7f0e"/>
     <use xlink:href="#m4e81e02890" x="661.548277" y="317.643075" style="fill: #ff7f0e; stroke: #ff7f0e"/>
     <use xlink:href="#m4e81e02890" x="680.235227" y="315.045004" style="fill: #ff7f0e; stroke: #ff7f0e"/>
    </g>
   </g>
   <g id="line2d_35">
    <path d="M 100.939773 371.834844 
L 119.626723 366.227304 
L 138.313673 360.542898 
L 157.000623 360.662053 
L 175.687573 354.30519 
L 194.374523 354.2507 
L 213.061474 354.271565 
L 231.748424 354.562113 
L 250.435374 349.713386 
L 269.122324 349.177911 
L 287.809274 349.171376 
L 306.496224 349.366467 
L 325.183174 349.062643 
L 343.870125 349.698394 
L 362.557075 349.285713 
L 381.244025 349.778341 
L 399.930975 344.135025 
L 418.617925 343.318866 
L 437.304875 342.380244 
L 455.991826 343.687417 
L 474.678776 342.438643 
L 493.365726 342.257118 
L 512.052676 342.260861 
L 530.739626 341.541648 
L 549.426576 341.258111 
L 568.113526 342.072822 
L 586.800477 341.852378 
L 605.487427 341.663988 
L 624.174377 341.986671 
L 642.861327 341.75686 
L 661.548277 341.536664 
L 680.235227 341.74286 
" clip-path="url(#p21eeba16a5)" style="fill: none; stroke: #2ca02c; stroke-width: 2; stroke-linecap: square"/>
    <defs>
     <path id="m171c273ac6" d="M 0 3 
C 0.795609 3 1.55874 2.683901 2.12132 2.12132 
C 2.683901 1.55874 3 0.795609 3 0 
C 3 -0.795609 2.683901 -1.55874 2.12132 -2.12132 
C 1.55874 -2.683901 0.795609 -3 0 -3 
C -0.795609 -3 -1.55874 -2.683901 -2.12132 -2.12132 
C -2.683901 -1.55874 -3 -0.795609 -3 0 
C -3 0.795609 -2.683901 1.55874 -2.12132 2.12132 
C -1.55874 2.683901 -0.795609 3 0 3 
z
" style="stroke: #2ca02c"/>
    </defs>
    <g clip-path="url(#p21eeba16a5)">
     <use xlink:href="#m171c273ac6" x="100.939773" y="371.834844" style="fill: #2ca02c; stroke: #2ca02c"/>
     <use xlink:href="#m171c273ac6" x="119.626723" y="366.227304" style="fill: #2ca02c; stroke: #2ca02c"/>
     <use xlink:href="#m171c273ac6" x="138.313673" y="360.542898" style="fill: #2ca02c; stroke: #2ca02c"/>
     <use xlink:href="#m171c273ac6" x="157.000623" y="360.662053" style="fill: #2ca02c; stroke: #2ca02c"/>
     <use xlink:href="#m171c273ac6" x="175.687573" y="354.30519" style="fill: #2ca02c; stroke: #2ca02c"/>
     <use xlink:href="#m171c273ac6" x="194.374523" y="354.2507" style="fill: #2ca02c; stroke: #2ca02c"/>
     <use xlink:href="#m171c273ac6" x="213.061474" y="354.271565" style="fill: #2ca02c; stroke: #2ca02c"/>
     <use xlink:href="#m171c273ac6" x="231.748424" y="354.562113" style="fill: #2ca02c; stroke: #2ca02c"/>
     <use xlink:href="#m171c273ac6" x="250.435374" y="349.713386" style="fill: #2ca02c; stroke: #2ca02c"/>
     <use xlink:href="#m171c273ac6" x="269.122324" y="349.177911" style="fill: #2ca02c; stroke: #2ca02c"/>
     <use xlink:href="#m171c273ac6" x="287.809274" y="349.171376" style="fill: #2ca02c; stroke: #2ca02c"/>
     <use xlink:href="#m171c273ac6" x="306.496224" y="349.366467" style="fill: #2ca02c; stroke: #2ca02c"/>
     <use xlink:href="#m171c273ac6" x="325.183174" y="349.062643" style="fill: #2ca02c; stroke: #2ca02c"/>
     <use xlink:href="#m171c273ac6" x="343.870125" y="349.698394" style="fill: #2ca02c; stroke: #2ca02c"/>
     <use xlink:href="#m171c273ac6" x="362.557075" y="349.285713" style="fill: #2ca02c; stroke: #2ca02c"/>
     <use xlink:href="#m171c273ac6" x="381.244025" y="349.778341" style="fill: #2ca02c; stroke: #2ca02c"/>
     <use xlink:href="#m171c273ac6" x="399.930975" y="344.135025" style="fill: #2ca02c; stroke: #2ca02c"/>
     <use xlink:href="#m171c273ac6" x="418.617925" y="343.318866" style="fill: #2ca02c; stroke: #2ca02c"/>
     <use xlink:href="#m171c273ac6" x="437.304875" y="342.380244" style="fill: #2ca02c; stroke: #2ca02c"/>
     <use xlink:href="#m171c273ac6" x="455.991826" y="343.687417" style="fill: #2ca02c; stroke: #2ca02c"/>
     <use xlink:href="#m171c273ac6" x="474.678776" y="342.438643" style="fill: #2ca02c; stroke: #2ca02c"/>
     <use xlink:href="#m171c273ac6" x="493.365726" y="342.257118" style="fill: #2ca02c; stroke: #2ca02c"/>
     <use xlink:href="#m171c273ac6" x="512.052676" y="342.260861" style="fill: #2ca02c; stroke: #2ca02c"/>
     <use xlink:href="#m171c273ac6" x="530.739626" y="341.541648" style="fill: #2ca02c; stroke: #2ca02c"/>
     <use xlink:href="#m171c273ac6" x="549.426576" y="341.258111" style="fill: #2ca02c; stroke: #2ca02c"/>
     <use xlink:href="#m171c273ac6" x="568.113526" y="342.072822" style="fill: #2ca02c; stroke: #2ca02c"/>
     <use xlink:href="#m171c273ac6" x="586.800477" y="341.852378" style="fill: #2ca02c; stroke: #2ca02c"/>
     <use xlink:href="#m171c273ac6" x="605.487427" y="341.663988" style="fill: #2ca02c; stroke: #2ca02c"/>
     <use xlink:href="#m171c273ac6" x="624.174377" y="341.986671" style="fill: #2ca02c; stroke: #2ca02c"/>
     <use xlink:href="#m171c273ac6" x="642.861327" y="341.75686" style="fill: #2ca02c; stroke: #2ca02c"/>
     <use xlink:href="#m171c273ac6" x="661.548277" y="341.536664" style="fill: #2ca02c; stroke: #2ca02c"/>
     <use xlink:href="#m171c273ac6" x="680.235227" y="341.74286" style="fill: #2ca02c; stroke: #2ca02c"/>
    </g>
   </g>
   <g id="patch_3">
    <path d="M 71.975 388.24 
L 71.975 27.6 
" style="fill: none; stroke: #000000; stroke-width: 0.8; stroke-linejoin: miter; stroke-linecap: square"/>
   </g>
   <g id="patch_4">
    <path d="M 709.2 388.24 
L 709.2 27.6 
" style="fill: none; stroke: #000000; stroke-width: 0.8; stroke-linejoin: miter; stroke-linecap: square"/>
   </g>
   <g id="patch_5">
    <path d="M 71.975 388.24 
L 709.2 388.24 
" style="fill: none; stroke: #000000; stroke-width: 0.8; stroke-linejoin: miter; stroke-linecap: square"/>
   </g>
   <g id="patch_6">
    <path d="M 71.975 27.6 
L 709.2 27.6 
" style="fill: none; stroke: #000000; stroke-width: 0.8; stroke-linejoin: miter; stroke-linecap: square"/>
   </g>
   <g id="text_19">
    <!-- Barrier Performance vs Node Count -->
    <g transform="translate(266.630625 21.6) scale(0.14 -0.14)">
     <defs>
      <path id="DejaVuSans-50" d="M 1259 4147 
L 1259 2394 
L 2053 2394 
Q 2494 2394 2734 2622 
Q 2975 2850 2975 3272 
Q 2975 3691 2734 3919 
Q 2494 4147 2053 4147 
L 1259 4147 
z
M 628 4666 
L 2053 4666 
Q 2838 4666 3239 4311 
Q 3641 3956 3641 3272 
Q 3641 2581 3239 2228 
Q 2838 1875 2053 1875 
L 1259 1875 
L 1259 0 
L 628 0 
L 628 4666 
z
" transform="scale(0.015625)"/>
      <path id="DejaVuSans-63" d="M 3122 3366 
L 3122 2828 
Q 2878 2963 2633 3030 
Q 2388 3097 2138 3097 
Q 1578 3097 1268 2742 
Q 959 2388 959 1747 
Q 959 1106 1268 751 
Q 1578 397 2138 397 
Q 2388 397 2633 464 
Q 2878 531 3122 666 
L 3122 134 
Q 2881 22 2623 -34 
Q 2366 -91 2075 -91 
Q 1284 -91 818 406 
Q 353 903 353 1747 
Q 353 2603 823 3093 
Q 1294 3584 2113 3584 
Q 2378 3584 2631 3529 
Q 2884 3475 3122 3366 
z
" transform="scale(0.015625)"/>
      <path id="DejaVuSans-76" d="M 191 3500 
L 800 3500 
L 1894 563 
L 2988 3500 
L 3597 3500 
L 2284 0 
L 1503 0 
L 191 3500 
z
" transform="scale(0.015625)"/>
      <path id="DejaVuSans-43" d="M 4122 4306 
L 4122 3641 
Q 3803 3938 3442 4084 
Q 3081 4231 2675 4231 
Q 1875 4231 1450 3742 
Q 1025 3253 1025 2328 
Q 1025 1406 1450 917 
Q 1875 428 2675 428 
Q 3081 428 3442 575 
Q 3803 722 4122 1019 
L 4122 359 
Q 3791 134 3420 21 
Q 3050 -91 2638 -91 
Q 1578 -91 968 557 
Q 359 1206 359 2328 
Q 359 3453 968 4101 
Q 1578 4750 2638 4750 
Q 3056 4750 3426 4639 
Q 3797 4528 4122 4306 
z
" transform="scale(0.015625)"/>
      <path id="DejaVuSans-74" d="M 1172 4494 
L 1172 3500 
L 2356 3500 
L 2356 3053 
L 1172 3053 
L 1172 1153 
Q 1172 725 1289 603 
Q 1406 481 1766 481 
L 2356 481 
L 2356 0 
L 1766 0 
Q 1100 0 847 248 
Q 594 497 594 1153 
L 594 3053 
L 172 3053 
L 172 3500 
L 594 3500 
L 594 4494 
L 1172 4494 
z
" transform="scale(0.015625)"/>
     </defs>
     <use xlink:href="#DejaVuSans-42"/>
     <use xlink:href="#DejaVuSans-61" x="68.603516"/>
     <use xlink:href="#DejaVuSans-72" x="129.882812"/>
     <use xlink:href="#DejaVuSans-72" x="169.246094"/>
     <use xlink:href="#DejaVuSans-69" x="210.359375"/>
     <use xlink:href="#DejaVuSans-65" x="238.142578"/>
     <use xlink:href="#DejaVuSans-72" x="299.666016"/>
     <use xlink:href="#DejaVuSans-20" x="340.779297"/>
     <use xlink:href="#DejaVuSans-50" x="372.566406"/>
     <use xlink:href="#DejaVuSans-65" x="429.244141"/>
     <use xlink:href="#DejaVuSans-72" x="490.767578"/>
     <use xlink:href="#DejaVuSans-66" x="531.880859"/>
     <use xlink:href="#DejaVuSans-6f" x="567.085938"/>
     <use xlink:href="#DejaVuSans-72" x="628.267578"/>
     <use xlink:href="#DejaVuSans-6d" x="667.630859"/>
     <use xlink:href="#DejaVuSans-61" x="765.042969"/>
     <use xlink:href="#DejaVuSans-6e" x="826.322266"/>
     <use xlink:href="#DejaVuSans-63" x="889.701172"/>
     <use xlink:href="#DejaVuSans-65" x="944.681641"/>
     <use xlink:href="#DejaVuSans-20" x="1006.205078"/>
     <use xlink:href="#DejaVuSans-76" x="1037.992188"/>
     <use xlink:href="#DejaVuSans-73" x="1097.171875"/>
     <use xlink:href="#DejaVuSans-20" x="1149.271484"/>
     <use xlink:href="#DejaVuSans-4e" x="1181.058594"/>
     <use xlink:href="#DejaVuSans-6f" x="1255.863281"/>
     <use xlink:href="#DejaVuSans-64" x="1317.044922"/>
     <use xlink:href="#DejaVuSans-65" x="1380.521484"/>
     <use xlink:href="#DejaVuSans-20" x="1442.044922"/>
     <use xlink:href="#DejaVuSans-43" x="1473.832031"/>
     <use xlink:href="#DejaVuSans-6f" x="1543.65625"/>
     <use xlink:href="#DejaVuSans-75" x="1604.837891"/>
     <use xlink:href="#DejaVuSans-6e" x="1668.216797"/>
     <use xlink:href="#DejaVuSans-74" x="1731.595703"/>
    </g>
   </g>
   <g id="legend_1">
    <g id="patch_7">
     <path d="M 78.975 79.634375 
L 182.164062 79.634375 
Q 184.164062 79.634375 184.164062 77.634375 
L 184.164062 34.6 
Q 184.164062 32.6 182.164062 32.6 
L 78.975 32.6 
Q 76.975 32.6 76.975 34.6 
L 76.975 77.634375 
Q 76.975 79.634375 78.975 79.634375 
z
" style="fill: #ffffff; opacity: 0.8; stroke: #cccccc; stroke-linejoin: miter"/>
    </g>
    <g id="line2d_36">
     <path d="M 80.975 40.698438 
L 90.975 40.698438 
L 100.975 40.698438 
" style="fill: none; stroke: #1f77b4; stroke-width: 2; stroke-linecap: square"/>
     <g>
      <use xlink:href="#mabddda1f7b" x="90.975" y="40.698438" style="fill: #1f77b4; stroke: #1f77b4"/>
     </g>
    </g>
    <g id="text_20">
     <!-- Centralized -->
     <g transform="translate(108.975 44.198438) scale(0.1 -0.1)">
      <defs>
       <path id="DejaVuSans-6c" d="M 603 4863 
L 1178 4863 
L 1178 0 
L 603 0 
L 603 4863 
z
" transform="scale(0.015625)"/>
       <path id="DejaVuSans-7a" d="M 353 3500 
L 3084 3500 
L 3084 2975 
L 922 459 
L 3084 459 
L 3084 0 
L 275 0 
L 275 525 
L 2438 3041 
L 353 3041 
L 353 3500 
z
" transform="scale(0.015625)"/>
      </defs>
      <use xlink:href="#DejaVuSans-43"/>
      <use xlink:href="#DejaVuSans-65" x="69.824219"/>
      <use xlink:href="#DejaVuSans-6e" x="131.347656"/>
      <use xlink:href="#DejaVuSans-74" x="194.726562"/>
      <use xlink:href="#DejaVuSans-72" x="233.935547"/>
      <use xlink:href="#DejaVuSans-61" x="275.048828"/>
      <use xlink:href="#DejaVuSans-6c" x="336.328125"/>
      <use xlink:href="#DejaVuSans-69" x="364.111328"/>
      <use xlink:href="#DejaVuSans-7a" x="391.894531"/>
      <use xlink:href="#DejaVuSans-65" x="444.384766"/>
      <use xlink:href="#DejaVuSans-64" x="505.908203"/>
     </g>
    </g>
    <g id="line2d_37">
     <path d="M 80.975 55.376563 
L 90.975 55.376563 
L 100.975 55.376563 
" style="fill: none; stroke: #ff7f0e; stroke-width: 2; stroke-linecap: square"/>
     <g>
      <use xlink:href="#m4e81e02890" x="90.975" y="55.376563" style="fill: #ff7f0e; stroke: #ff7f0e"/>
     </g>
    </g>
    <g id="text_21">
     <!-- Binary Tree -->
     <g transform="translate(108.975 58.876563) scale(0.1 -0.1)">
      <defs>
       <path id="DejaVuSans-79" d="M 2059 -325 
Q 1816 -950 1584 -1140 
Q 1353 -1331 966 -1331 
L 506 -1331 
L 506 -850 
L 844 -850 
Q 1081 -850 1212 -737 
Q 1344 -625 1503 -206 
L 1606 56 
L 191 3500 
L 800 3500 
L 1894 763 
L 2988 3500 
L 3597 3500 
L 2059 -325 
z
" transform="scale(0.015625)"/>
      </defs>
      <use xlink:href="#DejaVuSans-42"/>
      <use xlink:href="#DejaVuSans-69" x="68.603516"/>
      <use xlink:href="#DejaVuSans-6e" x="96.386719"/>
      <use xlink:href="#DejaVuSans-61" x="159.765625"/>
      <use xlink:href="#DejaVuSans-72" x="221.044922"/>
      <use xlink:href="#DejaVuSans-79" x="262.158203"/>
      <use xlink:href="#DejaVuSans-20" x="321.337891"/>
      <use xlink:href="#DejaVuSans-54" x="353.125"/>
      <use xlink:href="#DejaVuSans-72" x="399.458984"/>
      <use xlink:href="#DejaVuSans-65" x="438.322266"/>
      <use xlink:href="#DejaVuSans-65" x="499.845703"/>
     </g>
    </g>
    <g id="line2d_38">
     <path d="M 80.975 70.054688 
L 90.975 70.054688 
L 100.975 70.054688 
" style="fill: none; stroke: #2ca02c; stroke-width: 2; stroke-linecap: square"/>
     <g>
      <use xlink:href="#m171c273ac6" x="90.975" y="70.054688" style="fill: #2ca02c; stroke: #2ca02c"/>
     </g>
    </g>
    <g id="text_22">
     <!-- Dissemination -->
     <g transform="translate(108.975 73.554688) scale(0.1 -0.1)">
      <defs>
       <path id="DejaVuSans-44" d="M 1259 4147 
L 1259 519 
L 2022 519 
Q 2988 519 3436 956 
Q 3884 1394 3884 2338 
Q 3884 3275 3436 3711 
Q 2988 4147 2022 4147 
L 1259 4147 
z
M 628 4666 
L 1925 4666 
Q 3281 4666 3915 4102 
Q 4550 3538 4550 2338 
Q 4550 1131 3912 565 
Q 3275 0 1925 0 
L 628 0 
L 628 4666 
z
" transform="scale(0.015625)"/>
      </defs>
      <use xlink:href="#DejaVuSans-44"/>
      <use xlink:href="#DejaVuSans-69" x="77.001953"/>
      <use xlink:href="#DejaVuSans-73" x="104.785156"/>
      <use xlink:href="#DejaVuSans-73" x="156.884766"/>
      <use xlink:href="#DejaVuSans-65" x="208.984375"/>
      <use xlink:href="#DejaVuSans-6d" x="270.507812"/>
      <use xlink:href="#DejaVuSans-69" x="367.919922"/>
      <use xlink:href="#DejaVuSans-6e" x="395.703125"/>
      <use xlink:href="#DejaVuSans-61" x="459.082031"/>
      <use xlink:href="#DejaVuSans-74" x="520.361328"/>
      <use xlink:href="#DejaVuSans-69" x="559.570312"/>
      <use xlink:href="#DejaVuSans-6f" x="587.353516"/>
      <use xlink:href="#DejaVuSans-6e" x="648.535156"/>
     </g>
    </g>
   </g>
  </g>
 </g>
 <defs>
  <clipPath id="p21eeba16a5">
   <rect x="71.975" y="27.6" width="637.225" height="360.64"/>
  </clipPath>
 </defs>
</svg>
